<svg class="fill" width="24" height="24" viewBox="0 0 24 24" fill="none"
    xmlns="http://www.w3.org/2000/svg">
    <path d="M5.13013 6.59008L4.39622 6.43557L4.39597 6.43673L5.13013 6.59008ZM18.8701 6.59008L19.6043 6.43673L19.604 6.43557L18.8701 6.59008ZM4.209 11.0001L3.47485 10.8467C3.42868 11.0678 3.48456 11.2978 3.62698 11.4731C3.7694 11.6483 3.98319 11.7501 4.209 11.7501V11.0001ZM19.7913 11.0001V11.7501C20.0171 11.7501 20.2309 11.6483 20.3733 11.4731C20.5157 11.2978 20.5716 11.0678 20.5254 10.8467L19.7913 11.0001ZM2.32614 15.7172L3.0686 15.8233L2.32614 15.7172ZM21.6739 15.7172L20.9314 15.8233L21.6739 15.7172ZM2.75471 12.7172L3.49717 12.8233L2.75471 12.7172ZM4.00002 9.75006C4.41423 9.75006 4.75002 9.41427 4.75002 9.00006C4.75002 8.58585 4.41423 8.25006 4.00002 8.25006V9.75006ZM3.00002 8.25006C2.58581 8.25006 2.25002 8.58585 2.25002 9.00006C2.25002 9.41427 2.58581 9.75006 3.00002 9.75006V8.25006ZM21 9.75006C21.4142 9.75006 21.75 9.41427 21.75 9.00006C21.75 8.58585 21.4142 8.25006 21 8.25006V9.75006ZM20 8.25006C19.5858 8.25006 19.25 8.58585 19.25 9.00006C19.25 9.41427 19.5858 9.75006 20 9.75006V8.25006ZM12.75 4.00006C12.75 3.58585 12.4142 3.25006 12 3.25006C11.5858 3.25006 11.25 3.58585 11.25 4.00006H12.75ZM11.25 6.00006C11.25 6.41427 11.5858 6.75006 12 6.75006C12.4142 6.75006 12.75 6.41427 12.75 6.00006H11.25ZM10.5 5.25006C10.0858 5.25006 9.75002 5.58585 9.75002 6.00006C9.75002 6.41427 10.0858 6.75006 10.5 6.75006V5.25006ZM13.5 6.75006C13.9142 6.75006 14.25 6.41427 14.25 6.00006C14.25 5.58585 13.9142 5.25006 13.5 5.25006V6.75006ZM6.00002 13.7501C5.58581 13.7501 5.25002 14.0858 5.25002 14.5001C5.25002 14.9143 5.58581 15.2501 6.00002 15.2501V13.7501ZM9.00002 15.2501C9.41423 15.2501 9.75002 14.9143 9.75002 14.5001C9.75002 14.0858 9.41423 13.7501 9.00002 13.7501V15.2501ZM15 13.7501C14.5858 13.7501 14.25 14.0858 14.25 14.5001C14.25 14.9143 14.5858 15.2501 15 15.2501V13.7501ZM18 15.2501C18.4142 15.2501 18.75 14.9143 18.75 14.5001C18.75 14.0858 18.4142 13.7501 18 13.7501V15.2501ZM15.5101 3.08008H8.49013V4.58008H15.5101V3.08008ZM8.49013 3.08008C7.12152 3.08008 6.13656 3.42373 5.46005 4.11582C4.81086 4.77994 4.56014 5.65695 4.39622 6.43557L5.86404 6.74459C6.02012 6.0032 6.20439 5.50021 6.53271 5.16434C6.8337 4.85642 7.36874 4.58008 8.49013 4.58008V3.08008ZM19.604 6.43557C19.4401 5.65695 19.1894 4.77994 18.5402 4.11582C17.8637 3.42373 16.8787 3.08008 15.5101 3.08008V4.58008C16.6315 4.58008 17.1666 4.85642 17.4676 5.16434C17.7959 5.50021 17.9801 6.0032 18.1362 6.74459L19.604 6.43557ZM4.39597 6.43673L3.47485 10.8467L4.94316 11.1534L5.86428 6.74342L4.39597 6.43673ZM20.5254 10.8467L19.6043 6.43673L18.136 6.74342L19.0571 11.1534L20.5254 10.8467ZM4.209 11.7501H19.7913V10.2501H4.209V11.7501ZM4.73461 11.7501H19.2654V10.2501H4.73461V11.7501ZM20.5029 12.8233L20.9314 15.8233L22.4164 15.6112L21.9878 12.6112L20.5029 12.8233ZM19.694 17.2501H4.30604V18.7501H19.694V17.2501ZM3.0686 15.8233L3.49717 12.8233L2.01225 12.6112L1.58368 15.6112L3.0686 15.8233ZM4.30604 17.2501C3.54535 17.2501 2.96103 16.5763 3.0686 15.8233L1.58368 15.6112C1.34701 17.2678 2.63253 18.7501 4.30604 18.7501V17.2501ZM20.9314 15.8233C21.039 16.5763 20.4547 17.2501 19.694 17.2501V18.7501C21.3675 18.7501 22.653 17.2678 22.4164 15.6112L20.9314 15.8233ZM19.2654 11.7501C19.8875 11.7501 20.4149 12.2075 20.5029 12.8233L21.9878 12.6112C21.7943 11.2564 20.634 10.2501 19.2654 10.2501V11.7501ZM4.73461 10.2501C3.36607 10.2501 2.20579 11.2564 2.01225 12.6112L3.49717 12.8233C3.58515 12.2075 4.11255 11.7501 4.73461 11.7501V10.2501ZM3.25 18.0001V20.0001H4.75V18.0001H3.25ZM5 21.7501H6V20.2501H5V21.7501ZM7.75 20.0001V18.0001H6.25V20.0001H7.75ZM6 21.7501C6.9665 21.7501 7.75 20.9666 7.75 20.0001H6.25C6.25 20.1381 6.13807 20.2501 6 20.2501V21.7501ZM3.25 20.0001C3.25 20.9666 4.0335 21.7501 5 21.7501V20.2501C4.86193 20.2501 4.75 20.1381 4.75 20.0001H3.25ZM16.25 18.0001V20.0001H17.75V18.0001H16.25ZM18 21.7501H19V20.2501H18V21.7501ZM20.75 20.0001V18.0001H19.25V20.0001H20.75ZM19 21.7501C19.9665 21.7501 20.75 20.9666 20.75 20.0001H19.25C19.25 20.1381 19.1381 20.2501 19 20.2501V21.7501ZM16.25 20.0001C16.25 20.9666 17.0335 21.7501 18 21.7501V20.2501C17.8619 20.2501 17.75 20.1381 17.75 20.0001H16.25ZM4.00002 8.25006H3.00002V9.75006H4.00002V8.25006ZM21 8.25006H20V9.75006H21V8.25006ZM11.25 4.00006V6.00006H12.75V4.00006H11.25ZM10.5 6.75006H13.5V5.25006H10.5V6.75006ZM6.00002 15.2501H9.00002V13.7501H6.00002V15.2501ZM15 15.2501H18V13.7501H15V15.2501Z" fill="#414141" />
</svg>