<svg class="stroke" width="24" height="24" viewBox="0 0 24 24" fill="none"
    xmlns="http://www.w3.org/2000/svg">
    <path d="M13.43 15.0004H4.39997C2.57997 15.0004 1.41997 13.0505 2.29997 11.4505L6.80997 3.24043C7.71997 1.59043 10.1 1.59043 11.01 3.24043L13.2 7.21043L14.25 9.12043M13.43 15.0004C15.25 15.0004 16.41 13.0505 15.53 11.4505L14.25 9.12043M13.43 15.0004L9.01997 15.0004C9.00997 15.1704 8.99997 15.3304 8.99997 15.5004C8.99997 19.0904 11.91 22.0004 15.5 22.0004C19.09 22.0004 22 19.0904 22 15.5004C22 11.9104 19.09 9.00043 15.5 9.00043C15.07 9.00043 14.65 9.04043 14.25 9.12043" stroke="#414141" stroke-width="1.5" stroke-linecap="round" stroke-linejoin="round" />
</svg>