<svg width="24" class="stroke" height="24" viewBox="0 0 24 24" fill="none"
    xmlns="http://www.w3.org/2000/svg">
    <path d="M1 22H23M3 22V6.02161C3 4.01055 3.98366 3 5.94103 3H12.0689C14.0262 3 15 4.01055 15 6.02161V22V11.9084C15 10.6382 15.4918 10 16.4705 10H19.5344C20.5131 10 21 10.6382 21 11.9084V22M6.5 6V7M11.5 6V7M6.5 10V11M11.5 10V11M6.5 14V15M11.5 14V15M6.5 18V19M11.5 18V19M17.5 13H18.5M17.5 16H18.5M17.5 19H18.5" stroke="#414141" stroke-width="1.5" stroke-miterlimit="10" stroke-linecap="round" stroke-linejoin="round" />
</svg>