<svg class="stroke" width="24" height="24" viewBox="0 0 24 24" fill="none"
    xmlns="http://www.w3.org/2000/svg">
    <g clip-path="url(#clip0_2537_4549)">
        <path d="M4.86197 9.13704L10.4288 3.79735C11.3757 2.88901 12.9261 3.12331 13.5624 4.27091L17.6142 11.5788C18.2875 12.7933 17.5486 14.3076 16.1769 14.5241L11.1859 15.3122M4.86197 9.13704L3.2399 10.6929C2.5268 11.3769 2.4201 12.4792 2.98876 13.2873L4.37396 15.2557C4.81285 15.8794 5.56821 16.1992 6.3215 16.0802L7.12259 15.9538M4.86197 9.13704L7.15153 12.4313M11.1859 15.3122L12.8182 17.9217C13.3872 18.8313 13.1566 20.0604 12.303 20.6669C11.4495 21.2733 10.2963 21.0275 9.72729 20.1178L7.12259 15.9538M11.1859 15.3122L7.12259 15.9538M17 4.99917C18.2145 5.91138 19 7.36372 19 8.99954M17 1.58105C19.9318 2.76783 22 5.64216 22 8.99954C22 9.3382 21.979 9.67194 21.9381 9.99954" stroke="#414141" stroke-width="1.5" stroke-linecap="round" />
    </g>
    <defs>
        <clipPath id="clip0_2537_4549">
            <rect width="24" height="24" fill="white" />
        </clipPath>
    </defs>
</svg>